<svg width="7" height="10" viewBox="0 0 7 10" fill="none" xmlns="http://www.w3.org/2000/svg">
<path d="M0.96959 0.227006C0.828987 0.367651 0.75 0.558382 0.75 0.757256C0.75 0.956129 0.828987 1.14686 0.96959 1.28751L4.68209 5.00001L0.96959 8.71251C0.832971 8.85396 0.757375 9.04341 0.759084 9.24006C0.760793 9.4367 0.83967 9.62481 0.978726 9.76387C1.11778 9.90293 1.30589 9.9818 1.50254 9.98351C1.69919 9.98522 1.88864 9.90962 2.03009 9.77301L6.27284 5.53026C6.41344 5.38961 6.49243 5.19888 6.49243 5.00001C6.49243 4.80113 6.41344 4.6104 6.27284 4.46976L2.03009 0.227006C1.88944 0.0864023 1.69871 0.00741577 1.49984 0.00741577C1.30097 0.00741577 1.11024 0.0864023 0.96959 0.227006V0.227006Z" fill="black"/>
</svg>
