<svg width="60" height="65" viewBox="0 0 60 65" fill="none" xmlns="http://www.w3.org/2000/svg">
<path d="M30.9285 34.6984C33.802 27.0114 27.8514 22.8036 23.907 20.0381C23.1528 19.4731 22.3986 18.9453 21.7877 18.4621C20.6959 17.554 19.8916 16.3559 19.4705 15.0103C19.0493 13.6648 19.029 12.2283 19.412 10.8717C19.4513 10.7298 19.4503 10.5799 19.4091 10.4385C19.3679 10.2971 19.2881 10.1695 19.1784 10.0698C19.0686 9.97004 18.9332 9.90195 18.7869 9.87294C18.6405 9.84393 18.4889 9.85511 18.3486 9.90528C17.0202 10.4233 15.7851 11.1488 14.6907 12.0538C13.6392 12.8529 12.7873 13.8788 12.2003 15.0527C11.6133 16.2267 11.3068 17.5175 11.3044 18.8263C10.5606 19.4043 9.90308 20.0825 9.35102 20.841C8.33683 22.2057 7.82834 23.872 7.9105 25.5617C6.70244 26.6555 5.8027 28.0393 5.29908 29.5781C4.79546 31.1169 4.70516 32.7581 5.03702 34.3415C4.55642 34.6278 4.18442 35.0616 3.97814 35.5764C3.77185 36.0912 3.74269 36.6585 3.89514 37.1912C4.04759 37.7239 4.37323 38.1925 4.82203 38.5252C5.27082 38.8578 5.81798 39.036 6.37949 39.0325H6.43228V43.4038C6.43228 43.8474 6.61106 44.2729 6.9293 44.5866C7.24753 44.9003 7.67917 45.0765 8.12922 45.0765H9.44906L11.5985 63.439C11.6432 63.8478 11.8397 64.2258 12.1502 64.5003C12.4607 64.7748 12.8633 64.9264 13.2804 64.9258H22.2251C22.6426 64.9249 23.0452 64.7731 23.3566 64.499C23.668 64.2249 23.8665 63.8478 23.9145 63.439L26.064 45.0765H27.3838C27.8339 45.0765 28.2655 44.9003 28.5837 44.5866C28.902 44.2729 29.0808 43.8474 29.0808 43.4038V39.0325H29.1336C29.8156 39.0325 30.4698 38.7654 30.9521 38.29C31.4344 37.8146 31.7053 37.1698 31.7053 36.4974C31.7088 36.1619 31.6438 35.8291 31.5142 35.5187C31.3847 35.2084 31.1932 34.9269 30.9511 34.6909L30.9285 34.6984ZM11.5684 20.7518C12.6544 24.7737 16.8477 26.3572 20.6715 27.7697C20.7743 27.8321 20.8898 27.8713 21.0097 27.8848C21.1297 27.8982 21.2511 27.8854 21.3655 27.8473C21.4798 27.8092 21.5843 27.7468 21.6714 27.6644C21.7585 27.5821 21.8262 27.4818 21.8696 27.3707C21.9129 27.2597 21.931 27.1406 21.9224 27.0219C21.9138 26.9032 21.8788 26.7879 21.8198 26.684C21.7609 26.5802 21.6795 26.4904 21.5814 26.421C21.4833 26.3517 21.3709 26.3045 21.2522 26.2828C17.1343 24.744 13.2502 23.3092 12.9561 19.198C12.8871 18.0679 13.1023 16.9386 13.5826 15.9101C14.0628 14.8817 14.7932 13.9861 15.7089 13.3027C16.2826 12.8322 16.8985 12.4142 17.5491 12.0538C17.5072 12.5684 17.5072 13.0855 17.5491 13.6001C17.6364 14.7781 17.9631 15.9269 18.5099 16.978C19.0567 18.0291 19.8123 18.961 20.7318 19.7184C21.3578 20.2463 22.1346 20.789 22.9944 21.3688C24.9779 22.7739 27.233 24.3425 28.6659 26.4687C29.4305 27.5591 29.9062 28.8207 30.0498 30.1386C30.1934 31.4565 30.0002 32.7889 29.488 34.0144H26.1545C19.2838 34.0144 11.3873 32.141 9.82616 26.8924C9.51646 25.8127 9.51899 24.6691 9.83348 23.5906C10.148 22.5122 10.7619 21.5418 11.6061 20.789L11.5684 20.7518ZM17.7527 46.095L20.2718 48.578L17.7527 51.0611L15.2337 48.5632L17.7527 46.095ZM23.5299 52.6148L21.4483 54.6667L18.9293 52.1836L21.4483 49.708L23.6355 51.8565L23.5299 52.6148ZM17.7527 58.3094L15.2337 55.8264L17.7527 53.3433L20.2718 55.8264L17.7527 58.3094ZM16.5988 52.1985L14.0798 54.6815L11.9831 52.6148L11.8926 51.8714L14.0798 49.7229L16.5988 52.1985ZM12.9184 55.8264L12.413 56.3245L12.2848 55.1945L12.9184 55.8264ZM12.6544 58.3689L14.0798 56.9638L16.8477 59.7145C16.8619 59.77 16.8795 59.8246 16.9005 59.878H12.8278L12.6544 58.3689ZM21.4332 56.9638L22.8587 58.3689L22.6852 59.8557H18.4994L21.4332 56.9638ZM23.0924 56.3245L22.5871 55.8264L23.2282 55.1945L23.0924 56.3245ZM23.8466 49.827L22.5871 48.5632L24.186 46.9871L23.8466 49.827ZM21.4257 47.4332L19.0349 45.084H23.8165L21.4257 47.4332ZM14.0723 47.4332L11.6815 45.084H16.4631L14.0723 47.4332ZM13.2804 63.3126C13.2669 63.3111 13.2544 63.3051 13.2448 63.2956C13.2353 63.2862 13.2292 63.2738 13.2276 63.2606L13.0164 61.4764H22.4891L22.2855 63.2606C22.2836 63.275 22.2764 63.2883 22.2653 63.2979C22.2542 63.3075 22.2399 63.3127 22.2251 63.3126H13.2804ZM29.1336 37.4118H26.509C26.3949 37.401 26.2798 37.4139 26.171 37.4495C26.0623 37.4851 25.9623 37.5427 25.8775 37.6187C25.7927 37.6946 25.7249 37.7872 25.6786 37.8905C25.6322 37.9938 25.6082 38.1055 25.6082 38.2185C25.6082 38.3314 25.6322 38.4431 25.6786 38.5464C25.7249 38.6497 25.7927 38.7423 25.8775 38.8182C25.9623 38.8942 26.0623 38.9518 26.171 38.9874C26.2798 39.0231 26.3949 39.0359 26.509 39.0251H27.4441V43.3964C27.4423 43.4108 27.4352 43.4241 27.424 43.4337C27.4129 43.4433 27.3986 43.4485 27.3838 43.4484H8.09905C8.08427 43.4485 8.06996 43.4433 8.05884 43.4337C8.04772 43.4241 8.04057 43.4108 8.03872 43.3964V39.0251H22.9793C23.1828 39.0058 23.3717 38.9125 23.5091 38.7633C23.6466 38.6142 23.7227 38.42 23.7227 38.2185C23.7227 38.017 23.6466 37.8227 23.5091 37.6736C23.3717 37.5244 23.1828 37.4311 22.9793 37.4118H6.38703C6.25767 37.4233 6.1273 37.4081 6.00423 37.3672C5.88116 37.3263 5.76807 37.2605 5.6722 37.1742C5.57632 37.0878 5.49976 36.9827 5.44738 36.8655C5.39499 36.7484 5.36792 36.6218 5.36792 36.4937C5.36792 36.3657 5.39499 36.2391 5.44738 36.1219C5.49976 36.0048 5.57632 35.8996 5.6722 35.8133C5.76807 35.7269 5.88116 35.6612 6.00423 35.6202C6.1273 35.5793 6.25767 35.5641 6.38703 35.5756H8.09905C8.30252 35.5563 8.49141 35.463 8.62886 35.3139C8.76631 35.1647 8.84247 34.9705 8.84247 34.769C8.84247 34.5675 8.76631 34.3732 8.62886 34.2241C8.49141 34.075 8.30252 33.9817 8.09905 33.9624H6.59066C6.37462 32.8312 6.40972 31.6674 6.69354 30.5509C6.97736 29.4344 7.50317 28.3917 8.2348 27.4946C8.76273 29.1153 10.1203 31.3307 13.5142 33.0926C16.7044 34.7355 20.9279 35.5756 26.064 35.5756H29.0808C29.2101 35.5641 29.3405 35.5793 29.4636 35.6202C29.5866 35.6612 29.6997 35.7269 29.7956 35.8133C29.8914 35.8996 29.968 36.0048 30.0204 36.1219C30.0728 36.2391 30.0998 36.3657 30.0998 36.4937C30.0998 36.6218 30.0728 36.7484 30.0204 36.8655C29.968 36.9827 29.8914 37.0878 29.7956 37.1742C29.6997 37.2605 29.5866 37.3263 29.4636 37.3672C29.3405 37.4081 29.2101 37.4233 29.0808 37.4118H29.1336Z" fill="#F8D24E"/>
<path fill-rule="evenodd" clip-rule="evenodd" d="M40.0959 55.5114C39.438 55.4231 38.8303 55.3789 38.2729 55.3789C35.0996 55.3789 33.513 56.0766 33.513 57.472C33.513 58.2229 33.8282 58.8037 34.4586 59.2145C35.0961 59.6182 36.0275 59.8201 37.2529 59.8201C38.1072 59.8201 38.9462 59.7725 39.7699 59.6772C40.1345 59.635 40.4961 59.5835 40.8547 59.5226L40.9291 62.8694C39.5833 63.2236 38.1171 63.4007 36.5304 63.4007C34.9438 63.4007 33.6121 63.2767 32.5355 63.0288C31.4589 62.788 30.6159 62.5188 30.0068 62.2213C29.3976 61.9238 28.8593 61.5768 28.3918 61.1801C27.386 60.3301 26.8866 59.1968 26.8937 57.7802C26.8937 56.9018 27.0673 56.1085 27.4143 55.4002C28.0518 54.104 29.1639 53.1548 30.7505 52.5527C32.3372 51.9436 34.0867 51.639 35.9992 51.639C37.9117 51.639 39.725 51.8515 41.4391 52.2765L41.1735 55.6871C40.8004 55.6164 40.4412 55.5578 40.0959 55.5114ZM30.3624 51.5363C32.0876 50.8743 33.9707 50.551 35.9992 50.551C37.9927 50.551 39.8944 50.7726 41.7009 51.2205L42.5953 51.4422L42.4389 53.4505C42.6393 53.1967 42.8584 52.9627 43.0971 52.75C44.8036 51.2285 47.1848 50.551 50.0686 50.551C51.5077 50.551 52.8849 50.8271 54.1909 51.3812L54.2012 51.3855C55.5747 51.9849 56.6164 52.9184 57.2398 54.1989C57.6023 54.9341 57.7758 55.7339 57.7758 56.5795V56.6191L57.5717 59.4256L57.4504 59.425L57.2049 62.7069L56.8139 63.0033C56.1746 63.4879 55.1921 63.8168 54.0455 64.0694C52.8483 64.3403 51.6744 64.478 50.5254 64.478C49.4399 64.478 48.4923 64.4273 47.6922 64.3196C46.8794 64.2101 46.0772 64.0151 45.2866 63.736L45.2776 63.7329C44.4687 63.4395 43.7467 63.0605 43.1271 62.5852L43.1205 62.5801L43.114 62.575C42.6758 62.2281 42.2998 61.8176 41.9836 61.3505L42.0359 63.7032L41.206 63.9216C39.7582 64.3026 38.1977 64.4887 36.5304 64.4887C34.8954 64.4887 33.4769 64.3617 32.2944 64.0898C31.1812 63.8406 30.2466 63.5492 29.5293 63.199C28.8477 62.866 28.2319 62.4711 27.6887 62.0104C26.4176 60.9358 25.7979 59.4869 25.8057 57.7774C25.8061 56.7532 26.0097 55.7942 26.4373 54.9215L26.438 54.92C27.2178 53.3346 28.5672 52.218 30.3624 51.5363ZM40.9979 58.3948C40.9859 58.2174 40.9801 58.0372 40.9801 57.8545C40.9801 57.4858 41.004 57.1245 41.0525 56.7715L40.9709 56.756C39.9354 56.5597 39.0383 56.4669 38.2729 56.4669C36.7324 56.4669 35.7249 56.6414 35.1409 56.8982C34.8613 57.0211 34.7338 57.1393 34.6775 57.2135C34.6318 57.2738 34.601 57.3447 34.601 57.472C34.601 57.8517 34.7279 58.0895 35.0466 58.2991C35.4337 58.5418 36.1232 58.7321 37.2529 58.7321C38.4268 58.7321 39.5664 58.6377 40.6727 58.45L40.9979 58.3948ZM42.1231 56.9744C42.0864 57.2594 42.0681 57.5528 42.0681 57.8545C42.0681 58.747 42.2275 59.5155 42.5462 60.1601C42.865 60.7976 43.2793 61.3182 43.7893 61.722C44.3064 62.1186 44.9262 62.448 45.6487 62.7101C46.3711 62.9651 47.1007 63.1421 47.8374 63.2413C48.574 63.3405 49.47 63.3901 50.5254 63.3901C51.5879 63.3901 52.6823 63.2626 53.8085 63.0076C54.9347 62.7597 55.7174 62.4692 56.1566 62.1363L56.3585 59.4376H55.7847C55.6045 59.5127 55.4268 59.5831 55.2516 59.649C53.9886 60.1243 52.8595 60.362 51.8642 60.362C50.7309 60.362 49.8348 60.1778 49.1761 59.8095C48.9524 59.6831 48.7571 59.5403 48.5901 59.3813C48.2708 59.0772 48.0553 58.7134 47.9436 58.2901L56.5603 58.3326L56.6878 56.5795C56.6878 55.8854 56.5462 55.2514 56.2628 54.6777C55.767 53.6577 54.9347 52.8927 53.766 52.3827C52.5973 51.8869 51.3648 51.639 50.0686 51.639C47.3415 51.639 45.2591 52.28 43.8212 53.5621C43.3041 54.0225 42.8827 54.6281 42.5568 55.3789C42.4007 55.7386 42.282 56.1154 42.2007 56.5092C42.1692 56.6617 42.1434 56.8168 42.1231 56.9744ZM51.5242 54.9433C51.6213 55.0315 51.7034 55.1394 51.7703 55.2672C51.913 55.54 51.9868 55.903 51.9917 56.3564L48.1561 56.3352C48.2252 55.9149 48.3832 55.5531 48.6301 55.2498C48.687 55.18 48.7486 55.1132 48.8148 55.0496C49.169 54.7025 49.633 54.529 50.2067 54.529C50.7875 54.529 51.2267 54.6671 51.5242 54.9433Z" fill="#F8D24E"/>
</svg>
